<?xml version="1.0" standalone="no"?>
<!DOCTYPE svg PUBLIC "-//W3C//DTD SVG 20010904//EN"
 "http://www.w3.org/TR/2001/REC-SVG-20010904/DTD/svg10.dtd">
<svg version="1.0" xmlns="http://www.w3.org/2000/svg"
 width="287.000000pt" height="287.000000pt" viewBox="0 0 287.000000 287.000000"
 preserveAspectRatio="xMidYMid meet">
<metadata>
Created by potrace 1.11, written by Peter Selinger 2001-2013
</metadata>
<g transform="translate(0.000000,287.000000) scale(0.100000,-0.100000)"
fill="#000000" stroke="none">
<path d="M1891 2824 c-20 -14 -22 -23 -18 -68 9 -105 -13 -115 -153 -66 -137
49 -208 37 -180 -30 22 -53 -5 -70 -160 -100 -292 -57 -527 -180 -736 -387
-87 -86 -119 -125 -191 -231 -36 -53 -68 -99 -70 -102 -3 -3 10 27 30 65 31
62 127 206 160 239 6 7 33 35 58 63 145 155 342 282 552 355 37 12 67 26 67
29 0 3 -17 17 -37 31 -21 13 -74 49 -118 80 -131 90 -267 126 -308 80 -21 -23
-22 -58 -2 -66 18 -7 20 -45 3 -51 -7 -2 -55 -6 -107 -9 -142 -9 -230 -36
-334 -101 -75 -47 -77 -91 -6 -115 74 -26 66 -46 -45 -130 -103 -77 -171 -158
-182 -217 -8 -45 9 -63 67 -70 24 -3 49 -10 56 -15 19 -15 -2 -68 -73 -183
-56 -92 -52 -160 7 -148 41 8 49 -6 49 -92 0 -38 6 -81 13 -95 27 -54 86 -28
114 51 25 70 44 79 89 40 40 -36 46 -37 67 -13 19 21 33 77 42 162 7 79 25
110 64 110 23 0 32 -8 55 -50 23 -42 32 -50 55 -50 15 0 36 8 45 19 9 10 32
83 51 162 48 200 63 247 84 258 26 14 39 1 56 -57 25 -83 55 -70 130 58 76
128 139 203 215 259 l42 31 28 -30 c21 -23 37 -30 64 -30 20 0 38 1 40 3 2 1
13 -6 25 -17 l20 -18 -20 -40 c-43 -84 -4 -117 117 -99 102 15 140 14 158 -5
24 -24 20 -41 -26 -89 -49 -54 -54 -98 -16 -129 21 -17 38 -18 208 -14 203 6
236 0 343 -54 71 -35 178 -141 226 -221 42 -72 87 -200 102 -297 13 -76 17
-289 7 -345 -41 -227 -139 -442 -276 -604 -59 -69 -196 -189 -284 -247 -77
-52 -265 -132 -378 -163 -97 -26 -60 -27 46 -1 321 76 600 270 773 535 82 126
131 239 166 385 24 97 28 135 27 240 0 69 -3 139 -6 155 -2 17 -5 43 -5 58 -1
19 -5 26 -13 21 -7 -4 -8 -3 -4 5 9 13 -12 123 -22 117 -4 -2 -7 8 -8 23 -1
15 -13 54 -29 87 -15 32 -34 75 -43 94 -45 103 -246 352 -267 332 -5 -4 -5 -2
-2 4 8 15 -70 77 -85 68 -6 -4 -8 -3 -5 3 5 8 -25 43 -38 43 -3 0 -33 20 -67
45 -34 25 -68 43 -75 41 -8 -3 -11 -1 -8 4 3 5 -29 27 -71 48 -46 23 -72 42
-66 46 7 4 12 3 12 -3 0 -6 7 -8 15 -5 8 4 15 1 15 -6 0 -6 4 -9 9 -5 14 8
101 -37 94 -48 -3 -6 -1 -7 5 -3 14 8 129 -61 214 -129 98 -77 223 -220 299
-340 38 -60 74 -122 80 -137 6 -16 15 -28 19 -28 4 0 11 12 14 28 4 15 22 68
41 117 53 141 68 204 68 290 1 62 -4 88 -18 113 -25 42 -59 43 -80 2 -28 -53
-51 -35 -70 56 -33 159 -76 258 -152 355 -56 72 -85 89 -112 65 -11 -10 -21
-36 -24 -61 -2 -25 -10 -52 -17 -60 -11 -14 -15 -14 -37 0 -13 9 -48 40 -76
69 -76 78 -191 146 -246 146 -9 0 -27 -7 -40 -16z m-81 -368 c0 -2 -7 -6 -15
-10 -8 -3 -15 -1 -15 4 0 6 7 10 15 10 8 0 15 -2 15 -4z m30 -10 c0 -2 -7 -9
-15 -16 -13 -11 -14 -10 -9 4 5 14 24 23 24 12z m25 -16 c-3 -5 -11 -10 -16
-10 -6 0 -7 5 -4 10 3 6 11 10 16 10 6 0 7 -4 4 -10z"/>
<path d="M1325 2208 c6 -32 4 -34 -48 -56 -104 -44 -167 -127 -167 -217 0 -75
3 -76 76 -38 36 19 92 46 126 59 69 27 209 67 215 61 2 -2 -25 -12 -59 -21
-75 -21 -288 -124 -295 -143 -7 -19 57 -148 105 -211 22 -30 63 -71 91 -92 52
-39 147 -75 174 -64 16 6 66 73 89 119 41 83 47 240 15 364 -14 50 -14 54 4
58 23 6 23 5 -1 53 -40 78 -126 116 -242 108 -35 -3 -57 -3 -50 0 6 2 12 15
12 28 0 19 -5 24 -25 24 -24 0 -25 -3 -20 -32z"/>
<path d="M1010 1981 c-46 -14 -70 -34 -59 -48 8 -9 -1 -24 -33 -58 -105 -112
-143 -197 -139 -310 2 -54 10 -64 66 -79 88 -22 201 3 303 68 l41 25 -39 75
c-21 41 -46 101 -56 135 -13 47 -21 61 -36 61 -26 0 -32 24 -21 86 5 30 7 54
4 53 -3 0 -17 -4 -31 -8z"/>
<path d="M2070 1910 c0 -21 0 -22 -75 -24 -37 -1 -50 -5 -53 -18 -3 -16 0 -20
48 -58 l25 -20 -25 -19 c-35 -28 -19 -48 55 -75 46 -16 61 -26 63 -43 3 -17
-5 -25 -32 -37 -62 -26 -43 -50 79 -106 108 -50 119 -58 104 -76 -6 -8 -22
-14 -35 -14 -43 0 -35 -20 37 -93 79 -79 121 -154 122 -218 1 -50 10 -50 27 0
25 76 -5 248 -65 378 -42 91 -83 151 -159 233 -61 65 -36 50 39 -25 101 -99
174 -236 205 -381 10 -49 19 -82 20 -74 0 8 3 49 7 91 12 161 -58 370 -167
501 -23 27 -28 29 -47 18 -18 -12 -26 -8 -78 33 -61 51 -95 60 -95 27z"/>
<path d="M762 1351 c-7 -4 -46 -6 -85 -3 -88 5 -138 -12 -167 -60 -35 -59 -21
-154 29 -185 9 -6 55 -22 103 -37 72 -22 87 -30 92 -50 10 -39 -9 -73 -46 -85
-49 -16 -127 3 -129 32 -3 53 -21 76 -53 70 -24 -5 -24 -7 -21 -82 2 -42 4
-79 4 -83 2 -13 59 -9 64 5 4 10 7 10 18 0 17 -17 121 -17 162 1 50 21 70 50
75 111 7 89 -19 115 -151 150 -75 19 -100 46 -90 99 13 64 145 71 159 8 11
-55 23 -72 48 -72 32 0 37 9 41 74 2 30 6 64 10 75 5 17 1 23 -20 31 -31 12
-27 12 -43 1z"/>
<path d="M982 1348 c-15 -15 -15 -51 0 -66 7 -7 24 -12 38 -12 31 0 50 17 50
45 0 28 -19 45 -50 45 -14 0 -31 -5 -38 -12z"/>
<path d="M1267 1352 c-57 -3 -58 -4 -55 -30 2 -19 10 -28 25 -30 22 -3 22 -6
22 -150 0 -297 -2 -272 25 -272 14 0 28 4 31 10 4 6 18 4 37 -6 45 -24 130
-15 164 17 68 63 86 172 42 257 -33 65 -75 85 -161 78 l-67 -5 3 47 c6 81 1
87 -66 84z m210 -218 c49 -54 36 -162 -24 -197 -30 -17 -34 -17 -63 -2 -38 20
-53 55 -52 118 1 102 79 147 139 81z"/>
<path d="M1732 1348 c-16 -16 -15 -53 2 -67 21 -18 66 -9 82 14 12 18 11 24
-2 43 -17 24 -62 30 -82 10z"/>
<path d="M202 1310 c0 -14 2 -19 5 -12 2 6 2 18 0 25 -3 6 -5 1 -5 -13z"/>
<path d="M2505 1208 c-24 -115 -50 -189 -103 -292 -222 -434 -702 -687 -1182
-622 -137 18 -222 43 -348 102 -131 61 -212 118 -322 226 -104 102 -163 184
-235 325 -41 82 -95 254 -95 304 0 10 -4 20 -9 23 -9 6 -9 -5 3 -114 18 -166
92 -361 194 -513 55 -81 185 -215 269 -278 136 -101 342 -188 488 -205 28 -3
70 -10 95 -14 103 -20 323 5 470 52 81 25 257 117 330 171 82 61 214 202 274
292 61 93 137 261 160 357 16 67 40 258 33 265 -2 2 -12 -34 -22 -79z"/>
<path d="M2136 1205 c-39 -27 -47 -29 -45 -17 4 25 -5 29 -58 26 -32 -2 -61
-3 -65 -4 -5 0 -8 -11 -8 -26 0 -19 7 -28 30 -36 l30 -10 -2 -101 c-3 -82 -6
-102 -18 -103 -8 -1 -21 -2 -28 -3 -8 -1 -12 -11 -10 -28 l3 -28 97 -5 c113
-6 142 -1 146 24 6 28 -15 41 -66 41 l-47 0 -1 78 -2 78 50 40 c27 21 54 39
58 39 11 0 24 -20 27 -45 5 -29 19 -38 47 -31 21 5 26 12 26 37 0 91 -84 129
-164 74z"/>
<path d="M918 1209 c-5 -4 -8 -17 -6 -30 2 -19 11 -25 38 -29 l35 -5 3 -85 c4
-116 0 -130 -41 -128 -17 0 -38 0 -44 -1 -15 -1 -17 -47 -3 -56 13 -8 236 -8
250 0 14 9 13 55 -2 56 -7 1 -29 2 -48 3 l-35 1 0 141 0 141 -68 -1 c-38 -1
-73 -4 -79 -7z"/>
<path d="M1671 1212 c-15 -5 -14 -49 0 -58 7 -4 24 -7 38 -8 l26 -1 0 -105 0
-105 -35 -1 c-19 -1 -41 -2 -47 -3 -15 -1 -17 -47 -3 -56 13 -8 235 -9 248 -1
16 10 15 56 0 57 -7 1 -29 2 -48 3 l-35 1 -2 130 c0 72 -2 135 -2 140 -1 10
-114 15 -140 7z"/>
</g>
</svg>
